<mxfile host="Electron" modified="2024-07-16T07:15:51.261Z" agent="Mozilla/5.0 (X11; Linux x86_64) AppleWebKit/537.36 (KHTML, like Gecko) draw.io/22.0.3 Chrome/118.0.5993.159 Electron/27.3.11 Safari/537.36" etag="oNgh8eOiCcILtXZqEXiw" version="22.0.3" type="device">
  <diagram name="第1頁" id="QFzxGeWzziChKYdipmHZ">
    <mxGraphModel dx="1423" dy="353" grid="1" gridSize="10" guides="1" tooltips="1" connect="1" arrows="1" fold="1" page="1" pageScale="1" pageWidth="850" pageHeight="1100" math="0" shadow="0">
      <root>
        <mxCell id="0" />
        <mxCell id="1" parent="0" />
        <mxCell id="Y9mn2SCpG35TjRkxmPyb-34" value="" style="rounded=1;whiteSpace=wrap;html=1;" vertex="1" parent="1">
          <mxGeometry x="300" y="340" width="420" height="230" as="geometry" />
        </mxCell>
        <mxCell id="Y9mn2SCpG35TjRkxmPyb-22" value="" style="rounded=1;whiteSpace=wrap;html=1;" vertex="1" parent="1">
          <mxGeometry x="84" y="340" width="190" height="470" as="geometry" />
        </mxCell>
        <mxCell id="Y9mn2SCpG35TjRkxmPyb-10" value="" style="rounded=1;whiteSpace=wrap;html=1;" vertex="1" parent="1">
          <mxGeometry x="-380" y="340" width="410" height="230" as="geometry" />
        </mxCell>
        <mxCell id="Y9mn2SCpG35TjRkxmPyb-4" style="edgeStyle=orthogonalEdgeStyle;rounded=0;orthogonalLoop=1;jettySize=auto;html=1;exitX=0.5;exitY=1;exitDx=0;exitDy=0;entryX=0.5;entryY=0;entryDx=0;entryDy=0;" edge="1" parent="1" source="Y9mn2SCpG35TjRkxmPyb-1" target="Y9mn2SCpG35TjRkxmPyb-2">
          <mxGeometry relative="1" as="geometry">
            <Array as="points">
              <mxPoint x="180" y="320" />
              <mxPoint x="-60" y="320" />
            </Array>
          </mxGeometry>
        </mxCell>
        <mxCell id="Y9mn2SCpG35TjRkxmPyb-5" style="edgeStyle=orthogonalEdgeStyle;rounded=0;orthogonalLoop=1;jettySize=auto;html=1;exitX=0.5;exitY=1;exitDx=0;exitDy=0;entryX=0.5;entryY=0;entryDx=0;entryDy=0;" edge="1" parent="1" source="Y9mn2SCpG35TjRkxmPyb-1" target="Y9mn2SCpG35TjRkxmPyb-3">
          <mxGeometry relative="1" as="geometry" />
        </mxCell>
        <mxCell id="Y9mn2SCpG35TjRkxmPyb-8" style="edgeStyle=orthogonalEdgeStyle;rounded=0;orthogonalLoop=1;jettySize=auto;html=1;exitX=0.5;exitY=1;exitDx=0;exitDy=0;" edge="1" parent="1" source="Y9mn2SCpG35TjRkxmPyb-1" target="Y9mn2SCpG35TjRkxmPyb-6">
          <mxGeometry relative="1" as="geometry">
            <Array as="points">
              <mxPoint x="180" y="320" />
              <mxPoint x="430" y="320" />
            </Array>
          </mxGeometry>
        </mxCell>
        <mxCell id="Y9mn2SCpG35TjRkxmPyb-35" value="搜尋 IP 提供下方功能使用" style="edgeLabel;html=1;align=center;verticalAlign=middle;resizable=0;points=[];" vertex="1" connectable="0" parent="Y9mn2SCpG35TjRkxmPyb-8">
          <mxGeometry x="-0.7931" y="1" relative="1" as="geometry">
            <mxPoint y="1" as="offset" />
          </mxGeometry>
        </mxCell>
        <mxCell id="Y9mn2SCpG35TjRkxmPyb-1" value="網路嗅探" style="rounded=1;whiteSpace=wrap;html=1;" vertex="1" parent="1">
          <mxGeometry x="119" y="170" width="120" height="60" as="geometry" />
        </mxCell>
        <mxCell id="Y9mn2SCpG35TjRkxmPyb-2" value="Modbus 連線" style="rounded=1;whiteSpace=wrap;html=1;" vertex="1" parent="1">
          <mxGeometry x="-120" y="360" width="120" height="60" as="geometry" />
        </mxCell>
        <mxCell id="Y9mn2SCpG35TjRkxmPyb-3" value="中間人攻擊" style="rounded=1;whiteSpace=wrap;html=1;" vertex="1" parent="1">
          <mxGeometry x="120" y="360" width="120" height="60" as="geometry" />
        </mxCell>
        <mxCell id="Y9mn2SCpG35TjRkxmPyb-6" value="Fake Server （未完成）" style="rounded=1;whiteSpace=wrap;html=1;" vertex="1" parent="1">
          <mxGeometry x="350" y="360" width="150" height="60" as="geometry" />
        </mxCell>
        <mxCell id="Y9mn2SCpG35TjRkxmPyb-13" style="edgeStyle=orthogonalEdgeStyle;rounded=0;orthogonalLoop=1;jettySize=auto;html=1;exitX=1;exitY=0.5;exitDx=0;exitDy=0;entryX=0;entryY=0.5;entryDx=0;entryDy=0;" edge="1" parent="1" source="Y9mn2SCpG35TjRkxmPyb-11" target="Y9mn2SCpG35TjRkxmPyb-12">
          <mxGeometry relative="1" as="geometry" />
        </mxCell>
        <mxCell id="Y9mn2SCpG35TjRkxmPyb-14" value="讀取或竄改數據" style="edgeLabel;html=1;align=center;verticalAlign=middle;resizable=0;points=[];" vertex="1" connectable="0" parent="Y9mn2SCpG35TjRkxmPyb-13">
          <mxGeometry x="-0.1606" y="5" relative="1" as="geometry">
            <mxPoint x="8" y="-8" as="offset" />
          </mxGeometry>
        </mxCell>
        <mxCell id="Y9mn2SCpG35TjRkxmPyb-11" value="attacker" style="rounded=1;whiteSpace=wrap;html=1;" vertex="1" parent="1">
          <mxGeometry x="-360" y="480" width="120" height="60" as="geometry" />
        </mxCell>
        <mxCell id="Y9mn2SCpG35TjRkxmPyb-12" value="Server" style="rounded=1;whiteSpace=wrap;html=1;" vertex="1" parent="1">
          <mxGeometry x="-120" y="480" width="120" height="60" as="geometry" />
        </mxCell>
        <mxCell id="Y9mn2SCpG35TjRkxmPyb-18" value="" style="edgeStyle=orthogonalEdgeStyle;rounded=0;orthogonalLoop=1;jettySize=auto;html=1;dashed=1;startArrow=classic;startFill=1;" edge="1" parent="1" source="Y9mn2SCpG35TjRkxmPyb-15" target="Y9mn2SCpG35TjRkxmPyb-16">
          <mxGeometry relative="1" as="geometry" />
        </mxCell>
        <mxCell id="Y9mn2SCpG35TjRkxmPyb-21" value="丟棄 Client 發出的封包" style="edgeLabel;html=1;align=center;verticalAlign=middle;resizable=0;points=[];" vertex="1" connectable="0" parent="Y9mn2SCpG35TjRkxmPyb-18">
          <mxGeometry x="-0.125" y="5" relative="1" as="geometry">
            <mxPoint x="-5" y="5" as="offset" />
          </mxGeometry>
        </mxCell>
        <mxCell id="Y9mn2SCpG35TjRkxmPyb-15" value="Client" style="rounded=1;whiteSpace=wrap;html=1;" vertex="1" parent="1">
          <mxGeometry x="120" y="450" width="120" height="60" as="geometry" />
        </mxCell>
        <mxCell id="Y9mn2SCpG35TjRkxmPyb-16" value="attacker" style="rounded=1;whiteSpace=wrap;html=1;" vertex="1" parent="1">
          <mxGeometry x="120" y="590" width="120" height="60" as="geometry" />
        </mxCell>
        <mxCell id="Y9mn2SCpG35TjRkxmPyb-20" value="" style="edgeStyle=orthogonalEdgeStyle;rounded=0;orthogonalLoop=1;jettySize=auto;html=1;startArrow=classic;startFill=1;" edge="1" parent="1" source="Y9mn2SCpG35TjRkxmPyb-17" target="Y9mn2SCpG35TjRkxmPyb-16">
          <mxGeometry relative="1" as="geometry" />
        </mxCell>
        <mxCell id="Y9mn2SCpG35TjRkxmPyb-17" value="Server" style="rounded=1;whiteSpace=wrap;html=1;" vertex="1" parent="1">
          <mxGeometry x="120" y="730" width="120" height="60" as="geometry" />
        </mxCell>
        <mxCell id="Y9mn2SCpG35TjRkxmPyb-27" value="Client" style="rounded=1;whiteSpace=wrap;html=1;" vertex="1" parent="1">
          <mxGeometry x="310" y="480" width="120" height="60" as="geometry" />
        </mxCell>
        <mxCell id="Y9mn2SCpG35TjRkxmPyb-30" style="edgeStyle=orthogonalEdgeStyle;rounded=0;orthogonalLoop=1;jettySize=auto;html=1;exitX=1;exitY=0.25;exitDx=0;exitDy=0;entryX=0;entryY=0.25;entryDx=0;entryDy=0;" edge="1" parent="1" source="Y9mn2SCpG35TjRkxmPyb-28" target="Y9mn2SCpG35TjRkxmPyb-29">
          <mxGeometry relative="1" as="geometry" />
        </mxCell>
        <mxCell id="Y9mn2SCpG35TjRkxmPyb-32" value="發出對 Server 的連線" style="edgeLabel;html=1;align=center;verticalAlign=middle;resizable=0;points=[];" vertex="1" connectable="0" parent="Y9mn2SCpG35TjRkxmPyb-30">
          <mxGeometry x="-0.2448" y="6" relative="1" as="geometry">
            <mxPoint x="14" y="-5" as="offset" />
          </mxGeometry>
        </mxCell>
        <mxCell id="Y9mn2SCpG35TjRkxmPyb-28" value="Client" style="rounded=1;whiteSpace=wrap;html=1;" vertex="1" parent="1">
          <mxGeometry x="310" y="480" width="120" height="60" as="geometry" />
        </mxCell>
        <mxCell id="Y9mn2SCpG35TjRkxmPyb-31" style="edgeStyle=orthogonalEdgeStyle;rounded=0;orthogonalLoop=1;jettySize=auto;html=1;exitX=0;exitY=0.75;exitDx=0;exitDy=0;entryX=1;entryY=0.75;entryDx=0;entryDy=0;" edge="1" parent="1" source="Y9mn2SCpG35TjRkxmPyb-29" target="Y9mn2SCpG35TjRkxmPyb-28">
          <mxGeometry relative="1" as="geometry" />
        </mxCell>
        <mxCell id="Y9mn2SCpG35TjRkxmPyb-33" value="建立假的 Server 與 Client 連線" style="edgeLabel;html=1;align=center;verticalAlign=middle;resizable=0;points=[];" vertex="1" connectable="0" parent="Y9mn2SCpG35TjRkxmPyb-31">
          <mxGeometry x="0.054" y="-4" relative="1" as="geometry">
            <mxPoint x="4" y="19" as="offset" />
          </mxGeometry>
        </mxCell>
        <mxCell id="Y9mn2SCpG35TjRkxmPyb-29" value="attacker" style="rounded=1;whiteSpace=wrap;html=1;" vertex="1" parent="1">
          <mxGeometry x="590" y="480" width="120" height="60" as="geometry" />
        </mxCell>
      </root>
    </mxGraphModel>
  </diagram>
</mxfile>
